<?xml version="1.0" encoding="UTF-8"?><svg id="Layer_1" xmlns="http://www.w3.org/2000/svg" xmlns:xlink="http://www.w3.org/1999/xlink" viewBox="0 0 50 50"><defs><style>.cls-1{fill:none;}.cls-2{clip-path:url(#clippath);}.cls-3{fill:#231f20;}</style><clipPath id="clippath"><rect class="cls-1" x="5.54" y="12.75" width="38.91" height="24.5"/></clipPath></defs><g class="cls-2"><path class="cls-3" d="m43.78,37.25H6.22c-.38,0-.68-.3-.68-.68V13.43c0-.31.21-.58.5-.66.3-.08.61.05.77.31,3.9,6.6,10.7,10.54,18.19,10.54s14.3-3.94,18.19-10.54c.16-.26.47-.39.76-.31.3.08.5.35.5.66v23.14c0,.38-.3.68-.68.68Zm-36.87-1.36h36.19V15.7c-4.26,5.85-10.87,9.28-18.1,9.28s-13.83-3.43-18.1-9.28v20.18Z"/><rect x="5.54" y="12.75" width="38.54" height="1.36"/></g></svg>