<?xml version="1.0" encoding="UTF-8"?><svg id="Layer_1" xmlns="http://www.w3.org/2000/svg" xmlns:xlink="http://www.w3.org/1999/xlink" viewBox="0 0 50 50"><defs><style>.cls-1{fill:none;}.cls-2{clip-path:url(#clippath);}</style><clipPath id="clippath"><rect class="cls-1" x="12.54" y="5.3" width="25.82" height="38.91"/></clipPath></defs><g class="cls-2"><path d="m34.87,44.21h-18.84c-1.92,0-3.49-1.56-3.49-3.48V8.78c0-1.92,1.56-3.48,3.49-3.48h18.84c1.92,0,3.49,1.56,3.49,3.48v31.95c0,1.92-1.57,3.48-3.49,3.48Zm-21.01-8.72v5.24c0,1.19.97,2.16,2.17,2.16h18.84c1.2,0,2.17-.97,2.17-2.16v-5.24H13.86Zm0-1.32h23.18V8.78c0-1.19-.97-2.16-2.17-2.16h-18.84c-1.2,0-2.17.97-2.17,2.16v25.39Z"/><path d="m25.45,40.92c.84,0,1.52-.68,1.52-1.52s-.68-1.52-1.52-1.52-1.52.68-1.52,1.52.68,1.52,1.52,1.52"/></g></svg>